# xmcd CD database file generated by Grip 3.3.0
# 
# Track frame offsets:
#       150
#       14000
#       21177
#       35872
#       44162
#       60442
#       74457
#       86572
#       97087
#       118190
#       135565
#       155437
#       179850
#       192582
#       209965
# 
# Disc length: 3036 seconds
# 
# Revision: 2
# Processed by: cddbd v1.5.1PL2 Copyright (c) Steve Scherf et al.
# Submitted via: Grip 3.3.0
# 
DISCID=f30bda0f
DTITLE=Tony Trischka - World Turning
DYEAR=1993
DGENRE=Bluegrass
TTITLE0=Alfa Ya Ya
TTITLE1=Keemo Kimo/Circus Jig
TTITLE2=The Boatman's Dance/Over the Mountains
TTITLE3=Dan Tucker/Get Along John/Briggs Jig
TTITLE4=Ladies of Refinement
TTITLE5=Benko's Rag (a Magyar Fantasy)
TTITLE6=Booth Shot Lincoln
TTITLE7=Greenwood
TTITLE8=World Turning
TTITLE9=Ditzy and Zesty
TTITLE10=West Point of the Eno
TTITLE11=Sun Praire
TTITLE12=If Animals Could Talk
TTITLE13=Reuben
TTITLE14=Down in the Cider House
EXTD=
EXTT0=
EXTT1=
EXTT2=
EXTT3=
EXTT4=
EXTT5=
EXTT6=
EXTT7=
EXTT8=
EXTT9=
EXTT10=
EXTT11=
EXTT12=
EXTT13=
EXTT14=
PLAYORDER=
